<?xml version="1.0" encoding="UTF-8"?>
<svg id="Layer_1" xmlns="http://www.w3.org/2000/svg" version="1.1" viewBox="0 0 1500.73 848.75">
  <!-- Generator: Adobe Illustrator 29.2.0, SVG Export Plug-In . SVG Version: 2.1.0 Build 108)  -->
  <defs>
    <style>
      .st0 {
        display: none;
        fill: #fff;
      }
    </style>
  </defs>
  <rect class="st0" width="1500.73" height="848.75"/>
  <path d="M834.34,577.57c5.08-1.3,10.16-2.95,14.88-4.84,7.91-3.07,15.12-7.09,21.02-11.81,1.54-1.3,2.95-2.6,4.37-3.9,5.79-5.55,8.86-10.63,9.92-14.76.59-2.24.35-3.9-.35-4.72l-.12-.24c-2.6-2.6-5.32-4.02-8.15-4.37-4.72-.59-10.16,1.18-15.59,4.61-6.38,4.02-12.28,10.04-17.01,17.13-4.72,7.09-8.03,15-8.98,22.91h0ZM580.64,549.22c0,7.8-6.38,14.06-14.17,14.06s-14.06-6.26-14.06-14.06c0-55.16,22.32-105.12,58.47-141.26,36.14-36.14,86.1-58.47,141.14-58.47,43.94,0,84.45,14.17,117.52,38.27,33.78,24.69,59.65,59.65,72.64,100.4,2.36,7.32-1.65,15.35-9.09,17.72-7.44,2.36-15.35-1.77-17.72-9.09-11.22-35.08-33.43-65.08-62.36-86.22-28.35-20.67-63.19-32.84-100.99-32.84-47.24,0-90.12,19.25-121.18,50.32-14.65,14.53-26.58,31.77-35.2,50.91,6.5-3.19,12.99-4.96,19.02-5.2,7.8-.24,14.76,2.01,20.2,7.09,7.68,6.97,11.1,18.43,7.44,34.49l-9.69,41.69,6.02-10.28c20.91-35.79,42.76-73.11,47.84-80.08,3.78-5.2,8.62-8.74,13.46-10.16,4.02-1.3,8.15-1.18,12.05.24h0c4.13,1.42,7.56,4.25,9.92,8.39,2.36,4.25,3.54,9.8,2.72,16.77l-10.39,88.47c21.73-38.86,50.08-89.77,57.52-103.11,3.78-6.85,10.04-11.34,16.18-12.76,3.66-.94,7.32-.83,10.75.24,4.02,1.18,7.56,3.78,10.04,7.68,3.07,4.72,4.37,11.22,2.48,19.37-1.18,4.61-3.54,13.58-6.38,24.21-3.9,14.88-8.86,33.19-13.11,51.14-4.37,18.54.83,24.92,8.39,25.98,1.77.24,3.66.35,5.67.35-.12-15.59,5.32-31.3,14.06-44.41,6.85-10.39,15.83-19.37,25.63-25.51,10.63-6.61,22.44-10.04,34.02-8.62,8.98,1.18,17.6,5.2,24.92,12.87.47.59,1.06,1.18,1.65,1.89,6.38,7.8,8.62,17.95,5.91,29.17-2.24,9.09-8.03,19.02-17.83,28.46-1.89,1.77-3.9,3.54-6.14,5.43-8.15,6.61-17.83,12.05-28.23,16.18-2.83,1.06-5.79,2.13-8.74,3.19l.12.24c-2.48.94-5.2,1.77-8.27,2.72,2.36,2.36,5.2,4.13,8.39,5.55,3.9,1.77,8.15,2.95,12.64,3.31,4.72.47,9.69.24,14.65-.71,9.21-1.77,18.43-5.91,26.22-12.4,6.85-5.79,12.64-13.46,16.54-23.15,2.01-6.61,8.86-10.87,15.95-9.69,7.68,1.3,12.76,8.62,11.46,16.3-8.39,47.24-33.31,88.58-68.5,118.11-34.72,29.06-79.37,46.42-128.15,46.42-29.06,0-56.81-6.26-81.97-17.48-25.87-11.69-48.9-28.82-67.56-49.96-5.2-5.79-4.61-14.65,1.18-19.84,5.91-5.2,14.76-4.61,19.84,1.18,16.06,18.07,35.79,32.84,58.23,42.87,21.38,9.69,45.24,15,70.28,15,41.93,0,80.2-15,109.96-39.8,15-12.64,27.87-27.64,37.8-44.53-5.2,2.13-10.63,3.66-16.06,4.72-7.56,1.42-15.24,1.77-22.68,1.06-7.56-.83-14.76-2.72-21.38-5.67-9.21-4.13-17.13-10.39-23.15-18.66-1.42-2.01-2.72-4.13-3.9-6.38-5.55.47-11.1.47-16.42-.35-24.33-3.43-41.81-18.54-31.89-60.24,1.65-7.2,3.54-14.65,5.43-22.09l-32.01,57.4c-13.82,24.57-24.69,44.06-25.75,45.59-2.83,4.25-7.09,6.97-11.34,8.03-2.95.59-6.02.59-8.98-.35-3.43-1.06-6.38-3.07-8.62-6.14h.12c-2.48-3.43-3.78-7.68-3.19-12.64l12.99-110.55c-8.62,14.41-19.37,32.95-29.88,51.02-19.84,33.9-38.98,66.5-42.76,71.34h0c-2.95,3.9-7.44,6.5-11.69,7.32-2.95.59-6.02.47-8.98-.59-3.78-1.42-6.85-3.9-8.86-7.8-1.77-3.43-2.48-7.68-1.3-12.64l25.28-109.73c1.18-4.72,1.42-7.09,1.06-7.44-.35-.24.12.35-.35.47-2.01,0-4.61.83-7.56,2.36-11.69,5.91-24.33,20.79-27.28,41.93v2.95h0Z"/>
  <path d="M975.37,461.82c-4.61,0-8.86-1.18-12.64-3.31-3.78-2.24-6.73-5.32-8.98-9.21-2.24-3.78-3.43-8.39-3.43-13.58s1.18-9.57,3.43-13.46c2.24-3.9,5.2-6.97,8.98-9.21,3.78-2.24,8.03-3.43,12.64-3.43s8.74,1.18,12.52,3.43c3.78,2.24,6.73,5.32,8.98,9.21,2.24,3.9,3.43,8.39,3.43,13.46s-1.18,9.8-3.43,13.58c-2.24,3.9-5.2,6.97-8.98,9.21-3.78,2.13-8.03,3.31-12.52,3.31h0ZM975.37,456.86c3.66,0,6.97-.83,9.92-2.72,2.95-1.77,5.32-4.25,6.97-7.32,1.77-3.19,2.6-6.85,2.6-11.1s-.83-7.8-2.6-10.87c-1.65-3.19-4.02-5.67-6.97-7.56-2.95-1.77-6.26-2.6-9.92-2.6s-7.09.83-10.04,2.6c-2.95,1.89-5.2,4.37-6.97,7.56-1.77,3.07-2.6,6.73-2.6,10.87s.83,7.91,2.6,11.1c1.77,3.07,4.02,5.55,6.97,7.32,2.95,1.89,6.26,2.72,10.04,2.72h0ZM965.68,448.83v-26.81h10.16c2.83,0,5.2.71,7.32,1.89,2.01,1.3,2.95,3.54,2.95,6.73,0,1.54-.35,3.07-1.3,4.37-.83,1.42-2.01,2.36-3.54,2.83l6.02,10.98h-6.14l-4.61-9.09h-5.32v9.09h-5.55ZM971.23,435.36h3.31c1.77,0,3.19-.35,4.13-1.06,1.06-.83,1.54-1.89,1.54-3.31,0-1.3-.35-2.36-1.18-3.19-.83-.71-2.13-1.18-4.13-1.18h-3.66v8.74Z"/>
  <g>
    <path d="M99.92,295.99l17.13-4.37V108.43l-17.13-4.25v-4.25h75.83c32.36,0,55.75,4.84,70.04,14.65,14.41,9.92,21.5,23.62,21.5,41.1,0,11.81-3.07,21.5-9.45,28.82-6.26,7.32-14.41,12.76-24.33,16.42-10.51,4.02-21.61,6.14-33.43,6.26v1.42c7.09.47,13.23,1.54,18.54,3.19,13.35,4.25,22.44,11.81,27.17,22.68l25.87,57.17,14.29,4.37v4.25h-40.16c-15.59,0-27.05-8.15-34.25-24.33l-28.7-64.37h-18.54v80.08l19.96,4.37v4.25h-84.33v-4.25ZM175.75,204.33c13.35,0,23.86-4.13,31.42-12.52,7.68-8.5,11.46-20.43,11.46-36.14s-3.78-27.64-11.46-36.02c-7.56-8.39-18.07-12.64-31.42-12.64h-11.46v97.32h11.46Z"/>
    <path d="M363.31,304.49c-24.45,0-43.47-6.73-57.05-20.2-13.46-13.35-20.32-32.01-20.32-55.63,0-15.47,2.95-28.94,8.86-40.39,6.02-11.34,14.17-20.2,24.8-26.34,10.63-6.02,22.8-9.09,36.5-9.09s25.87,2.6,36.26,7.68c10.39,5.2,18.43,12.17,23.98,20.79,5.67,8.74,8.5,18.31,8.5,28.82,0,4.72-.47,8.86-1.42,12.28l-1.54,4.84c-8.15,1.77-17.01,3.19-26.58,4.25-20.08,2.95-40.28,4.37-60.71,4.37,0,22.09,3.07,37.91,9.21,47.36,6.14,9.45,14.53,14.17,25.16,14.17,7.44,0,14.41-1.77,20.79-5.32,6.38-3.54,11.46-8.27,15.12-14.06,3.78-5.79,5.67-11.81,5.67-17.83h7.09c0,7.56-2.24,14.88-6.85,21.73-4.61,6.85-10.98,12.28-19.13,16.42-8.27,4.13-17.72,6.14-28.35,6.14h0ZM334.61,228.66c12.28,0,22.21-.47,29.76-1.42,3.31-.24,6.73-.71,10.39-1.42.12-.94.59-3.07,1.42-6.26.94-4.84,1.42-9.92,1.42-15.24,0-15.83-2.13-27.4-6.26-34.72-4.25-7.32-9.33-11.1-15.24-11.1-14.29,0-21.5,23.39-21.5,70.16h0Z"/>
    <path d="M432.05,165.71l-14.29-4.25v-4.37h35.79c9.92,0,17.72,2.13,23.62,6.14,5.79,4.13,10.75,10.16,15,18.19l34.02,66.14,31.77-77.6-21.5-8.5v-4.37h53.03v4.37l-22.91,8.5-54.45,133.11h-8.5l-71.58-137.36Z"/>
    <path d="M583.83,295.99l17.13-4.37v-125.91l-17.13-4.25v-4.37h37.21c17.13,0,25.75,8.62,25.75,25.75v108.78l17.13,4.37v4.25h-80.08v-4.25ZM621.03,139.96c-5.79,0-10.51-1.89-14.29-5.79-3.9-3.78-5.79-8.5-5.79-14.29s1.89-10.51,5.79-14.29c3.78-3.78,8.5-5.67,14.29-5.67s10.51,1.89,14.29,5.67,5.67,8.62,5.67,14.29-1.89,10.51-5.67,14.29c-3.78,3.9-8.62,5.79-14.29,5.79h0Z"/>
    <path d="M744.11,304.49c-12.52,0-23.5-2.24-32.72-6.85-9.21-4.61-16.42-10.87-21.38-18.9-4.96-8.03-7.44-17.01-7.44-27.17v-87.28h-19.96v-7.2h19.96v-14.29c0-17.13,8.62-25.75,25.87-25.75h19.96v40.04h40.04v7.2h-40.04v87.28c0,17.6,1.89,29.53,5.43,36.02,3.66,6.5,8.98,9.8,16.06,9.8s12.87-3.43,18.07-10.04c5.08-6.73,7.68-15.71,7.68-27.17h7.2c0,14.06-3.54,25.04-10.63,32.72-7.09,7.8-16.42,11.57-28.11,11.57h0Z"/>
    <path d="M840.13,304.49c-17.01,0-30.12-3.54-39.21-10.87-9.21-7.2-13.7-16.42-13.7-27.76,0-7.44,1.54-14.76,4.84-21.97,1.3-3.43,3.07-6.61,5.08-9.45,7.91-2.01,16.3-3.66,25.51-5.2,20.67-3.43,38.86-5.55,54.69-6.26v-8.62c0-21.14-2.6-35.79-7.8-43.82-5.08-8.03-12.99-12.05-23.74-12.05-4.02,0-7.44.47-10.28,1.54l-4.02,1.42v42.87l-3.66.83c-3.07.47-5.67.59-7.8.59-6.5,0-11.69-1.89-15.59-5.79-3.9-4.02-5.91-9.21-5.91-15.59,0-8.86,4.49-16.3,13.35-22.44,8.86-6.02,22.09-9.09,39.69-9.09,14.88,0,27.64,2.6,38.5,7.91,10.75,5.2,18.9,12.4,24.57,21.73,5.67,9.21,8.5,19.84,8.5,31.89v77.25l17.13,4.37v4.25h-25.75c-11.46,0-20.32-3.54-26.58-10.63-2.72-2.83-4.84-6.5-6.38-10.87-2.6,4.84-5.79,9.09-9.45,12.87-8.5,8.62-19.25,12.87-32.01,12.87h0ZM851.59,294.57c7.09,0,13.46-3.9,19.13-11.46,2.13-2.95,4.25-6.73,6.61-11.46v-41.58c-8.74,0-17.24.47-25.16,1.42-5.91.83-9.92,1.3-12.05,1.42-.94,2.13-1.89,4.96-2.83,8.62-2.01,7.32-2.95,14.41-2.95,21.5,0,10.63,1.65,18.54,4.96,23.74,3.19,5.2,7.32,7.8,12.28,7.8h0Z"/>
    <path d="M946.08,295.99l17.13-4.37V108.43l-17.13-4.25v-4.25h37.21c17.24,0,25.75,8.5,25.75,25.75v165.95l17.24,4.37v4.25h-80.2v-4.25Z"/>
    <path d="M1032.06,295.99l17.13-4.37v-125.91l-17.13-4.25v-4.37h37.21c17.13,0,25.75,8.62,25.75,25.75v108.78l17.13,4.37v4.25h-80.08v-4.25ZM1069.27,139.96c-5.79,0-10.51-1.89-14.29-5.79-3.9-3.78-5.79-8.5-5.79-14.29s1.89-10.51,5.79-14.29c3.78-3.78,8.5-5.67,14.29-5.67s10.51,1.89,14.29,5.67c3.78,3.78,5.67,8.62,5.67,14.29s-1.89,10.51-5.67,14.29c-3.78,3.9-8.62,5.79-14.29,5.79h0Z"/>
    <path d="M1117.93,293.04l81.62-128.74h-51.5c0,10.51-3.19,21.02-9.45,31.77-2.48,4.02-5.55,7.68-9.21,11.1h-8.62v-50.08h130.28v7.2l-81.62,128.74h54.45c0-10.87,3.07-21.38,9.09-31.77,2.72-4.37,5.91-8.03,9.45-11.1h8.62v50.08h-133.11v-7.2Z"/>
    <path d="M1339.86,304.49c-24.45,0-43.47-6.73-56.93-20.2-13.58-13.35-20.32-32.01-20.32-55.63,0-15.47,2.95-28.94,8.86-40.39,5.91-11.34,14.17-20.2,24.69-26.34,10.63-6.02,22.8-9.09,36.5-9.09s25.87,2.6,36.26,7.68c10.39,5.2,18.43,12.17,23.98,20.79,5.67,8.74,8.5,18.31,8.5,28.82,0,4.72-.47,8.86-1.42,12.28l-1.42,4.84c-8.27,1.77-17.13,3.19-26.69,4.25-19.96,2.95-40.28,4.37-60.59,4.37,0,22.09,2.95,37.91,9.09,47.36,6.14,9.45,14.53,14.17,25.16,14.17,7.44,0,14.41-1.77,20.79-5.32,6.38-3.54,11.46-8.27,15.24-14.06,3.66-5.79,5.55-11.81,5.55-17.83h7.09c0,7.56-2.24,14.88-6.85,21.73-4.61,6.85-10.98,12.28-19.13,16.42-8.27,4.13-17.72,6.14-28.35,6.14h0ZM1311.28,228.66c12.17,0,22.09-.47,29.76-1.42,3.19-.24,6.61-.71,10.28-1.42.12-.94.71-3.07,1.42-6.26.94-4.84,1.42-9.92,1.42-15.24,0-15.83-2.13-27.4-6.26-34.72-4.25-7.32-9.33-11.1-15.24-11.1-14.29,0-21.38,23.39-21.38,70.16h0Z"/>
  </g>
</svg>