<?xml version="1.0" encoding="UTF-8"?>
<svg id="Layer_1" xmlns="http://www.w3.org/2000/svg" version="1.1" viewBox="0 0 2000 598.17">
  <!-- Generator: Adobe Illustrator 29.2.0, SVG Export Plug-In . SVG Version: 2.1.0 Build 108)  -->
  <defs>
    <style>
      .st0 {
        fill: #fff;
      }

      .st1 {
        fill: #294547;
      }

      .st2 {
        fill: #81d9de;
      }
    </style>
  </defs>
  <rect class="st2" width="2000" height="599.17"/>
  <path class="st0" d="M1734.25,327.86c5.07-1.14,10.13-2.78,14.87-4.74,7.85-3.11,15.04-7.03,20.92-11.93,1.63-1.14,3.11-2.45,4.41-3.76,5.72-5.56,8.99-10.62,9.97-14.87.49-2.12.33-3.76-.33-4.74l-.16-.16c-2.62-2.61-5.39-4.09-8.17-4.41-4.58-.49-10.13,1.31-15.53,4.74-6.37,3.92-12.26,9.97-17,17-4.74,7.03-8.01,15.04-8.99,22.88h0ZM1480.59,299.58c0,7.85-6.37,14.06-14.22,14.06s-14.06-6.21-14.06-14.06c0-55.08,22.39-105.09,58.51-141.21,36.12-36.12,85.97-58.51,141.21-58.51,43.8,0,84.33,14.22,117.35,38.24,33.83,24.68,59.66,59.66,72.73,100.35,2.29,7.52-1.8,15.36-9.15,17.81-7.35,2.29-15.36-1.8-17.65-9.15-11.28-34.98-33.34-65.05-62.43-86.3-28.27-20.59-63.09-32.69-100.84-32.69-47.4,0-90.22,19.29-121.27,50.18-14.55,14.71-26.64,31.87-35.14,50.99,6.37-3.27,12.91-4.9,18.96-5.07,7.85-.33,14.71,1.96,20.27,6.86,7.52,7.19,10.95,18.63,7.35,34.49l-9.64,41.84,6.05-10.3c20.92-35.79,42.66-73.06,47.72-80.08,3.76-5.23,8.66-8.66,13.4-10.13,4.09-1.31,8.34-1.31,12.26.16h0c4.09,1.47,7.52,4.25,9.81,8.5,2.45,4.09,3.6,9.81,2.78,16.67l-10.46,88.42c21.74-38.73,50.01-89.56,57.53-102.97,3.76-6.86,9.97-11.44,16.18-12.91,3.6-.82,7.35-.82,10.79.33,3.92,1.31,7.52,3.76,9.97,7.68,3.11,4.74,4.41,11.28,2.45,19.45-1.14,4.58-3.43,13.57-6.37,24.19-3.92,14.71-8.83,33.18-13.08,50.99-4.25,18.63.82,25.01,8.34,26.15,1.8.16,3.76.33,5.72.33-.16-15.69,5.39-31.38,14.06-44.46,6.86-10.46,15.85-19.45,25.66-25.5,10.62-6.7,22.39-9.97,34-8.66,8.99,1.31,17.65,5.23,24.84,12.91.65.49,1.14,1.14,1.8,1.96,6.21,7.68,8.5,17.81,5.88,29.09-2.29,9.15-8.01,18.96-17.81,28.44-1.96,1.8-3.92,3.6-6.21,5.39-8.17,6.7-17.81,12.09-28.28,16.18-2.78,1.14-5.72,2.29-8.66,3.27v.33c-2.29.82-5.07,1.63-8.17,2.61,2.45,2.29,5.23,4.25,8.34,5.56,3.92,1.8,8.17,2.94,12.58,3.27,4.74.49,9.81.33,14.71-.65,9.32-1.8,18.47-5.88,26.31-12.42,6.86-5.88,12.58-13.57,16.51-23.04,1.96-6.7,8.83-10.95,15.85-9.81,7.68,1.31,12.91,8.66,11.44,16.34-8.34,47.23-33.18,88.58-68.48,118-34.65,29.09-79.27,46.58-127.97,46.58-29.26,0-57.04-6.37-82.05-17.65-25.99-11.6-48.87-28.77-67.66-49.85-5.07-5.88-4.58-14.71,1.31-19.94,5.72-5.07,14.71-4.58,19.78,1.31,16.02,17.98,35.79,32.69,58.18,42.82,21.41,9.64,45.27,15.04,70.44,15.04,41.84,0,80.08-15.04,109.83-39.88,15.04-12.58,27.78-27.62,37.92-44.62-5.39,2.12-10.79,3.76-16.18,4.74-7.52,1.47-15.2,1.8-22.72,1.14-7.52-.82-14.71-2.62-21.41-5.56-9.15-4.25-17-10.46-23.04-18.8-1.47-1.96-2.78-4.09-3.92-6.37-5.56.49-11.11.49-16.34-.33-24.35-3.43-41.84-18.63-32.03-60.31,1.8-7.19,3.6-14.55,5.56-22.06l-32.03,57.53c-13.89,24.52-24.68,43.97-25.82,45.44-2.78,4.41-7.03,7.03-11.28,8.01-2.94.82-6.05.65-8.99-.33-3.43-.98-6.37-2.94-8.66-6.05h.16c-2.45-3.43-3.76-7.68-3.27-12.58l13.08-110.65c-8.66,14.55-19.45,33.01-29.91,50.99-19.78,34-38.9,66.52-42.66,71.42h0c-3.11,3.76-7.52,6.54-11.77,7.35-2.94.49-6.05.33-8.99-.65-3.76-1.31-6.86-3.92-8.83-7.68-1.8-3.43-2.45-7.85-1.31-12.75l25.33-109.67c1.14-4.9,1.31-7.03.98-7.52-.33-.16.16.49-.33.49-1.96,0-4.58.82-7.52,2.29-11.77,6.05-24.52,20.76-27.29,42v2.94h0Z"/>
  <path class="st1" d="M1875.3,212.14c-4.58,0-8.83-1.14-12.58-3.27-3.76-2.29-6.86-5.23-9.15-9.15-2.12-3.92-3.27-8.34-3.27-13.57s1.14-9.64,3.27-13.57c2.29-3.92,5.39-7.03,9.15-9.15,3.76-2.29,8.01-3.43,12.58-3.43s8.66,1.14,12.42,3.43c3.76,2.12,6.86,5.23,9.15,9.15,2.12,3.92,3.27,8.5,3.27,13.57s-1.14,9.64-3.27,13.57c-2.29,3.92-5.39,6.86-9.15,9.15-3.76,2.12-7.85,3.27-12.42,3.27h0ZM1875.3,207.24c3.6,0,6.86-.82,9.97-2.62,2.94-1.8,5.23-4.41,6.86-7.52,1.8-3.11,2.62-6.7,2.62-10.95s-.82-7.85-2.62-10.95c-1.63-3.11-3.92-5.72-6.86-7.52-3.11-1.8-6.37-2.61-9.97-2.61s-7.03.82-9.97,2.61c-2.94,1.8-5.39,4.41-7.03,7.52-1.8,3.11-2.62,6.86-2.62,10.95s.82,7.85,2.62,10.95c1.63,3.11,4.09,5.72,7.03,7.52,2.94,1.8,6.21,2.62,9.97,2.62h0ZM1865.65,199.23v-26.8h10.13c2.78,0,5.23.65,7.19,1.96,2.12,1.14,3.11,3.43,3.11,6.54,0,1.63-.49,3.11-1.31,4.41-.98,1.47-2.12,2.45-3.6,2.94l6.05,10.95h-6.21l-4.58-9.15h-5.23v9.15h-5.56ZM1871.21,185.83h3.27c1.63,0,3.11-.49,4.09-1.14.98-.82,1.47-1.96,1.47-3.27s-.33-2.45-1.14-3.27c-.82-.65-2.12-1.14-4.09-1.14h-3.6v8.83Z"/>
  <path class="st1" d="M99.86,395.85l17.16-4.41v-183.05l-17.16-4.41v-4.25h75.84c32.52,0,55.9,4.9,70.12,14.71,14.38,9.81,21.57,23.54,21.57,41.19,0,11.77-3.27,21.41-9.48,28.77-6.37,7.35-14.38,12.75-24.35,16.34-10.46,4.09-21.74,6.21-33.5,6.37v1.47c7.03.33,13.24,1.31,18.63,3.11,13.4,4.09,22.39,11.77,27.13,22.55l25.82,57.2,14.22,4.41v4.25h-40.04c-15.53,0-27.13-8.17-34.32-24.35l-28.6-64.39h-18.63v80.08l20.1,4.41v4.25h-84.5v-4.25ZM175.7,304.16c13.4,0,23.86-4.09,31.54-12.58,7.68-8.34,11.44-20.43,11.44-35.96s-3.76-27.78-11.44-36.12-18.14-12.58-31.54-12.58h-11.44v97.25h11.44Z"/>
  <path class="st1" d="M363.32,404.35c-24.52,0-43.47-6.7-57.04-20.1-13.57-13.57-20.27-32.03-20.27-55.73,0-15.36,2.94-28.93,8.83-40.37,5.88-11.44,14.22-20.27,24.84-26.31,10.46-6.05,22.72-9.15,36.45-9.15s25.82,2.62,36.12,7.68c10.46,5.23,18.47,12.09,24.19,20.76,5.56,8.66,8.34,18.31,8.34,28.77,0,4.74-.49,8.99-1.47,12.42l-1.31,4.74c-8.34,1.8-17.16,3.27-26.64,4.41-20.1,2.78-40.37,4.25-60.64,4.25,0,22.06,2.94,37.92,9.15,47.4,6.05,9.48,14.38,14.06,25.17,14.06,7.35,0,14.38-1.63,20.76-5.23,6.37-3.6,11.44-8.17,15.04-14.06,3.76-5.72,5.72-11.77,5.72-17.81h7.03c0,7.52-2.29,14.87-6.86,21.74-4.58,6.86-10.95,12.26-19.12,16.51-8.17,4.09-17.65,6.05-28.27,6.05h0ZM334.72,328.51c12.09,0,22.06-.49,29.75-1.47,3.27-.16,6.7-.65,10.3-1.31.16-.98.65-3.11,1.31-6.37.98-4.74,1.47-9.81,1.47-15.2,0-15.85-2.12-27.46-6.21-34.81-4.25-7.19-9.32-10.95-15.2-10.95-14.38,0-21.41,23.37-21.41,70.12h0Z"/>
  <path class="st1" d="M431.97,265.59l-14.22-4.25v-4.41h35.79c9.81,0,17.81,2.12,23.54,6.21,5.88,4.09,10.79,10.13,15.04,18.14l34.16,66.19,31.71-77.63-21.41-8.5v-4.41h52.95v4.41l-22.88,8.5-54.43,133.04h-8.66l-71.59-137.29Z"/>
  <path class="st1" d="M583.8,395.85l17.16-4.41v-125.85l-17.16-4.25v-4.41h37.26c17.16,0,25.66,8.66,25.66,25.82v108.69l17.16,4.41v4.25h-80.09v-4.25ZM621.07,239.76c-5.72,0-10.62-1.8-14.38-5.72-3.76-3.76-5.72-8.5-5.72-14.22s1.96-10.62,5.72-14.38c3.76-3.76,8.66-5.72,14.38-5.72s10.46,1.96,14.22,5.72c3.92,3.76,5.72,8.66,5.72,14.38s-1.8,10.46-5.72,14.22c-3.76,3.92-8.5,5.72-14.22,5.72h0Z"/>
  <path class="st1" d="M744.14,404.35c-12.58,0-23.54-2.29-32.69-6.86-9.32-4.58-16.51-10.79-21.41-18.8s-7.35-17.16-7.35-27.29v-87.28h-20.1v-7.19h20.1v-14.22c0-17.16,8.5-25.82,25.66-25.82h20.1v40.04h40.04v7.19h-40.04v87.28c0,17.65,1.8,29.58,5.39,36.12,3.6,6.54,8.99,9.64,16.02,9.64s12.91-3.27,17.98-9.97c5.23-6.7,7.85-15.69,7.85-27.13h7.19c0,14.06-3.6,25.01-10.62,32.69-7.03,7.85-16.51,11.6-28.11,11.6h0Z"/>
  <path class="st1" d="M840.08,404.35c-17,0-30.07-3.6-39.23-10.79-9.15-7.35-13.73-16.51-13.73-27.78,0-7.52,1.63-14.87,4.9-22.06,1.31-3.43,3.11-6.54,5.23-9.48,7.68-1.96,16.18-3.6,25.33-5.07,20.59-3.43,38.9-5.56,54.75-6.37v-8.5c0-21.25-2.61-35.79-7.68-43.8-5.23-8.01-13.08-12.09-23.86-12.09-3.92,0-7.35.49-10.3,1.47l-3.92,1.47v42.82l-3.76.98c-3.11.33-5.72.49-7.68.49-6.54,0-11.77-1.96-15.69-5.88s-5.88-9.15-5.88-15.53c0-8.83,4.41-16.34,13.4-22.39,8.83-6.05,22.06-9.15,39.55-9.15,14.87,0,27.78,2.62,38.57,7.85,10.79,5.23,18.96,12.58,24.52,21.74,5.72,9.32,8.5,19.94,8.5,32.03v77.14l17.16,4.41v4.25h-25.66c-11.6,0-20.43-3.6-26.64-10.62-2.78-2.78-4.9-6.54-6.37-10.79-2.62,4.74-5.72,8.99-9.48,12.75-8.5,8.66-19.29,12.91-32.03,12.91h0ZM851.52,394.38c7.03,0,13.57-3.76,19.29-11.44,1.96-2.94,4.25-6.7,6.54-11.44v-41.51c-8.83,0-17.16.49-25.17,1.47-5.88.65-9.97,1.14-12.09,1.31-.98,2.12-1.8,5.07-2.78,8.66-1.96,7.19-2.94,14.38-2.94,21.41,0,10.79,1.63,18.63,4.9,23.86,3.27,5.07,7.35,7.68,12.26,7.68h0Z"/>
  <path class="st1" d="M946.15,395.85l17.16-4.41v-183.05l-17.16-4.41v-4.25h37.1c17.16,0,25.82,8.66,25.82,25.82v165.89l17.16,4.41v4.25h-80.08v-4.25Z"/>
  <path class="st1" d="M1031.95,395.85l17.16-4.41v-125.85l-17.16-4.25v-4.41h37.26c17.16,0,25.82,8.66,25.82,25.82v108.69l17.16,4.41v4.25h-80.25v-4.25ZM1069.22,239.76c-5.72,0-10.46-1.8-14.38-5.72-3.76-3.76-5.72-8.5-5.72-14.22s1.96-10.62,5.72-14.38c3.92-3.76,8.66-5.72,14.38-5.72s10.46,1.96,14.38,5.72c3.76,3.76,5.72,8.66,5.72,14.38s-1.96,10.46-5.72,14.22c-3.92,3.92-8.66,5.72-14.38,5.72h0Z"/>
  <path class="st1" d="M1117.92,392.91l81.56-128.79h-51.48c0,10.46-3.11,21.08-9.48,31.71-2.45,4.09-5.56,7.85-9.15,11.28h-8.5v-50.18h130.26v7.19l-81.72,128.79h54.43c0-10.79,3.11-21.41,9.15-31.71,2.78-4.41,5.88-8.17,9.48-11.28h8.66v50.18h-133.2v-7.19Z"/>
  <path class="st1" d="M1339.87,404.35c-24.52,0-43.47-6.7-57.04-20.1-13.57-13.57-20.27-32.03-20.27-55.73,0-15.36,2.94-28.93,8.83-40.37,5.88-11.44,14.22-20.27,24.84-26.31,10.62-6.05,22.72-9.15,36.45-9.15s25.82,2.62,36.28,7.68c10.3,5.23,18.31,12.09,24.03,20.76,5.56,8.66,8.34,18.31,8.34,28.77,0,4.74-.49,8.99-1.31,12.42l-1.47,4.74c-8.17,1.8-17.16,3.27-26.64,4.41-20.1,2.78-40.21,4.25-60.64,4.25,0,22.06,2.94,37.92,9.15,47.4,6.05,9.48,14.38,14.06,25.17,14.06,7.35,0,14.38-1.63,20.76-5.23,6.37-3.6,11.44-8.17,15.2-14.06,3.6-5.72,5.56-11.77,5.56-17.81h7.19c0,7.52-2.29,14.87-6.86,21.74s-11.11,12.26-19.29,16.51c-8.17,4.09-17.65,6.05-28.27,6.05h0ZM1311.27,328.51c12.09,0,22.06-.49,29.75-1.47,3.27-.16,6.7-.65,10.3-1.31.16-.98.65-3.11,1.47-6.37.82-4.74,1.31-9.81,1.31-15.2,0-15.85-1.96-27.46-6.21-34.81-4.25-7.19-9.32-10.95-15.2-10.95-14.38,0-21.41,23.37-21.41,70.12h0Z"/>
</svg>